999
"DXF R12 Output" (www.mydxf.blogspot.com)
 0 
SECTION
 2 
HEADER
 9 
$ACADVER
 1 
AC1009
 9 
$EXTMIN
 10 
 0 
 20 
 0 
 9 
$EXTMAX
 10 
 8.5 
 20 
 11 
 0 
ENDSEC
 0 
SECTION
 2 
ENTITIES
0
LINE
8
0
10
17.908172
20
5.966707
11
17.875099
21
6.023991
0
LINE
8
0
10
17.875099
20
6.023991
11
17.808953
21
6.023991
0
LINE
8
0
10
17.808953
20
6.023991
11
17.775881
21
5.966707
0
LINE
8
0
10
17.775881
20
5.966707
11
17.808953
21
5.909424
0
LINE
8
0
10
17.808953
20
5.909424
11
17.875099
21
5.909424
0
LINE
8
0
10
17.875099
20
5.909424
11
17.908172
21
5.966707
0
LINE
8
0
10
17.908172
20
5.966707
11
17.908172
21
5.966707
0
LINE
8
0
10
43.958140
20
5.966707
11
43.925067
21
6.023991
0
LINE
8
0
10
43.925067
20
6.023991
11
43.858921
21
6.023991
0
LINE
8
0
10
43.858921
20
6.023991
11
43.825848
21
5.966707
0
LINE
8
0
10
43.825848
20
5.966707
11
43.858921
21
5.909424
0
LINE
8
0
10
43.858921
20
5.909424
11
43.925067
21
5.909424
0
LINE
8
0
10
43.925067
20
5.909424
11
43.958140
21
5.966707
0
LINE
8
0
10
43.958140
20
5.966707
11
43.958140
21
5.966707
0
LINE
8
0
10
85.008089
20
5.966707
11
84.975016
21
6.023991
0
LINE
8
0
10
84.975016
20
6.023991
11
84.908870
21
6.023991
0
LINE
8
0
10
84.908870
20
6.023991
11
84.875798
21
5.966707
0
LINE
8
0
10
84.875798
20
5.966707
11
84.908870
21
5.909424
0
LINE
8
0
10
84.908870
20
5.909424
11
84.975016
21
5.909424
0
LINE
8
0
10
84.975016
20
5.909424
11
85.008089
21
5.966707
0
LINE
8
0
10
85.008089
20
5.966707
11
85.008089
21
5.966707
0
LINE
8
0
10
111.058055
20
5.966707
11
111.024983
21
6.023991
0
LINE
8
0
10
111.024983
20
6.023991
11
110.958837
21
6.023991
0
LINE
8
0
10
110.958837
20
6.023991
11
110.925764
21
5.966707
0
LINE
8
0
10
110.925764
20
5.966707
11
110.958837
21
5.909424
0
LINE
8
0
10
110.958837
20
5.909424
11
111.024983
21
5.909424
0
LINE
8
0
10
111.024983
20
5.909424
11
111.058055
21
5.966707
0
LINE
8
0
10
111.058055
20
5.966707
11
111.058055
21
5.966707
0
LINE
8
0
10
17.842026
20
5.966707
11
69.941963
21
5.966707
0
LINE
8
0
10
69.941963
20
5.966707
11
69.941963
21
94.866601
0
LINE
8
0
10
69.941963
20
94.866601
11
17.842026
21
94.866601
0
LINE
8
0
10
17.842026
20
94.866601
11
17.842026
21
5.966707
0
LINE
8
0
10
27.192015
20
89.766604
11
27.044643
21
90.316604
0
LINE
8
0
10
27.044643
20
90.316604
11
26.642016
21
90.719231
0
LINE
8
0
10
26.642016
20
90.719231
11
26.092016
21
90.866603
0
LINE
8
0
10
26.092016
20
90.866603
11
25.542017
21
90.719231
0
LINE
8
0
10
25.542017
20
90.719231
11
25.139389
21
90.316604
0
LINE
8
0
10
25.139389
20
90.316604
11
24.992017
21
89.766604
0
LINE
8
0
10
24.992017
20
89.766604
11
25.139390
21
89.216605
0
LINE
8
0
10
25.139390
20
89.216605
11
25.542017
21
88.813978
0
LINE
8
0
10
25.542017
20
88.813978
11
26.092016
21
88.666606
0
LINE
8
0
10
26.092016
20
88.666606
11
26.642016
21
88.813978
0
LINE
8
0
10
26.642016
20
88.813978
11
27.044643
21
89.216605
0
LINE
8
0
10
27.044643
20
89.216605
11
27.192015
21
89.766604
0
LINE
8
0
10
27.192015
20
89.766604
11
27.192015
21
89.766604
0
LINE
8
0
10
62.791970
20
89.768343
11
62.705371
21
90.196339
0
LINE
8
0
10
62.705371
20
90.196339
11
62.469597
21
90.545810
0
LINE
8
0
10
62.469597
20
90.545810
11
62.120010
21
90.781413
0
LINE
8
0
10
62.120010
20
90.781413
11
61.691971
21
90.867802
0
LINE
8
0
10
61.691971
20
90.867802
11
61.263933
21
90.781413
0
LINE
8
0
10
61.263933
20
90.781413
11
60.914346
21
90.545810
0
LINE
8
0
10
60.914346
20
90.545810
11
60.678572
21
90.196339
0
LINE
8
0
10
60.678572
20
90.196339
11
60.591973
21
89.768343
0
LINE
8
0
10
60.591973
20
89.768343
11
60.678572
21
89.340347
0
LINE
8
0
10
60.678572
20
89.340347
11
60.914346
21
88.990875
0
LINE
8
0
10
60.914346
20
88.990875
11
61.263933
21
88.755272
0
LINE
8
0
10
61.263933
20
88.755272
11
61.691971
21
88.668884
0
LINE
8
0
10
61.691971
20
88.668884
11
62.120010
21
88.755272
0
LINE
8
0
10
62.120010
20
88.755272
11
62.469597
21
88.990875
0
LINE
8
0
10
62.469597
20
88.990875
11
62.705371
21
89.340347
0
LINE
8
0
10
62.705371
20
89.340347
11
62.791970
21
89.768343
0
LINE
8
0
10
62.791970
20
89.768343
11
62.791970
21
89.768343
0
LINE
8
0
10
62.792444
20
11.068450
11
62.705845
21
11.496446
0
LINE
8
0
10
62.705845
20
11.496446
11
62.470071
21
11.845918
0
LINE
8
0
10
62.470071
20
11.845918
11
62.120483
21
12.081520
0
LINE
8
0
10
62.120483
20
12.081520
11
61.692445
21
12.167909
0
LINE
8
0
10
61.692445
20
12.167909
11
61.264407
21
12.081520
0
LINE
8
0
10
61.264407
20
12.081520
11
60.914819
21
11.845918
0
LINE
8
0
10
60.914819
20
11.845918
11
60.679045
21
11.496446
0
LINE
8
0
10
60.679045
20
11.496446
11
60.592447
21
11.068450
0
LINE
8
0
10
60.592447
20
11.068450
11
60.679045
21
10.640454
0
LINE
8
0
10
60.679045
20
10.640454
11
60.914819
21
10.290982
0
LINE
8
0
10
60.914819
20
10.290982
11
61.264407
21
10.055379
0
LINE
8
0
10
61.264407
20
10.055379
11
61.692445
21
9.968991
0
LINE
8
0
10
61.692445
20
9.968991
11
62.120483
21
10.055379
0
LINE
8
0
10
62.120483
20
10.055379
11
62.470071
21
10.290982
0
LINE
8
0
10
62.470071
20
10.290982
11
62.705845
21
10.640454
0
LINE
8
0
10
62.705845
20
10.640454
11
62.792444
21
11.068450
0
LINE
8
0
10
62.792444
20
11.068450
11
62.792444
21
11.068450
0
LINE
8
0
10
27.192015
20
11.066704
11
27.044643
21
11.616703
0
LINE
8
0
10
27.044643
20
11.616703
11
26.642016
21
12.019330
0
LINE
8
0
10
26.642016
20
12.019330
11
26.092016
21
12.166702
0
LINE
8
0
10
26.092016
20
12.166702
11
25.542017
21
12.019330
0
LINE
8
0
10
25.542017
20
12.019330
11
25.139389
21
11.616703
0
LINE
8
0
10
25.139389
20
11.616703
11
24.992017
21
11.066704
0
LINE
8
0
10
24.992017
20
11.066704
11
25.139390
21
10.516704
0
LINE
8
0
10
25.139390
20
10.516704
11
25.542017
21
10.114077
0
LINE
8
0
10
25.542017
20
10.114077
11
26.092016
21
9.966705
0
LINE
8
0
10
26.092016
20
9.966705
11
26.642016
21
10.114077
0
LINE
8
0
10
26.642016
20
10.114077
11
27.044643
21
10.516704
0
LINE
8
0
10
27.044643
20
10.516704
11
27.192015
21
11.066704
0
LINE
8
0
10
27.192015
20
11.066704
11
27.192015
21
11.066704
0
LINE
8
0
10
30.242012
20
65.666636
11
30.027652
21
66.466635
0
LINE
8
0
10
30.027652
20
66.466635
11
29.442012
21
67.052275
0
LINE
8
0
10
29.442012
20
67.052275
11
28.642013
21
67.266634
0
LINE
8
0
10
28.642013
20
67.266634
11
27.842014
21
67.052275
0
LINE
8
0
10
27.842014
20
67.052275
11
27.256374
21
66.466635
0
LINE
8
0
10
27.256374
20
66.466635
11
27.042015
21
65.666636
0
LINE
8
0
10
27.042015
20
65.666636
11
27.256375
21
64.866637
0
LINE
8
0
10
27.256375
20
64.866637
11
27.842015
21
64.280997
0
LINE
8
0
10
27.842015
20
64.280997
11
28.642014
21
64.066638
0
LINE
8
0
10
28.642014
20
64.066638
11
29.442013
21
64.280997
0
LINE
8
0
10
29.442013
20
64.280997
11
30.027652
21
64.866637
0
LINE
8
0
10
30.027652
20
64.866637
11
30.242012
21
65.666636
0
LINE
8
0
10
30.242012
20
65.666636
11
30.242012
21
65.666636
0
LINE
8
0
10
60.741973
20
65.666636
11
60.527614
21
66.466635
0
LINE
8
0
10
60.527614
20
66.466635
11
59.941974
21
67.052275
0
LINE
8
0
10
59.941974
20
67.052275
11
59.141975
21
67.266634
0
LINE
8
0
10
59.141975
20
67.266634
11
58.341976
21
67.052275
0
LINE
8
0
10
58.341976
20
67.052275
11
57.756336
21
66.466635
0
LINE
8
0
10
57.756336
20
66.466635
11
57.541977
21
65.666636
0
LINE
8
0
10
57.541977
20
65.666636
11
57.756336
21
64.866637
0
LINE
8
0
10
57.756336
20
64.866637
11
58.341976
21
64.280997
0
LINE
8
0
10
58.341976
20
64.280997
11
59.141975
21
64.066638
0
LINE
8
0
10
59.141975
20
64.066638
11
59.941974
21
64.280997
0
LINE
8
0
10
59.941974
20
64.280997
11
60.527614
21
64.866637
0
LINE
8
0
10
60.527614
20
64.866637
11
60.741973
21
65.666636
0
LINE
8
0
10
60.741973
20
65.666636
11
60.741973
21
65.666636
0
LINE
8
0
10
30.242012
20
35.166669
11
30.027652
21
35.966668
0
LINE
8
0
10
30.027652
20
35.966668
11
29.442012
21
36.552308
0
LINE
8
0
10
29.442012
20
36.552308
11
28.642013
21
36.766667
0
LINE
8
0
10
28.642013
20
36.766667
11
27.842014
21
36.552308
0
LINE
8
0
10
27.842014
20
36.552308
11
27.256374
21
35.966668
0
LINE
8
0
10
27.256374
20
35.966668
11
27.042015
21
35.166669
0
LINE
8
0
10
27.042015
20
35.166669
11
27.256375
21
34.366670
0
LINE
8
0
10
27.256375
20
34.366670
11
27.842015
21
33.781031
0
LINE
8
0
10
27.842015
20
33.781031
11
28.642014
21
33.566671
0
LINE
8
0
10
28.642014
20
33.566671
11
29.442013
21
33.781031
0
LINE
8
0
10
29.442013
20
33.781031
11
30.027652
21
34.366670
0
LINE
8
0
10
30.027652
20
34.366670
11
30.242012
21
35.166669
0
LINE
8
0
10
30.242012
20
35.166669
11
30.242012
21
35.166669
0
LINE
8
0
10
60.741973
20
35.166669
11
60.527614
21
35.966669
0
LINE
8
0
10
60.527614
20
35.966669
11
59.941974
21
36.552309
0
LINE
8
0
10
59.941974
20
36.552309
11
59.141975
21
36.766668
0
LINE
8
0
10
59.141975
20
36.766668
11
58.341976
21
36.552309
0
LINE
8
0
10
58.341976
20
36.552309
11
57.756336
21
35.966669
0
LINE
8
0
10
57.756336
20
35.966669
11
57.541977
21
35.166669
0
LINE
8
0
10
57.541977
20
35.166669
11
57.756336
21
34.366670
0
LINE
8
0
10
57.756336
20
34.366670
11
58.341976
21
33.781030
0
LINE
8
0
10
58.341976
20
33.781030
11
59.141975
21
33.566671
0
LINE
8
0
10
59.141975
20
33.566671
11
59.941974
21
33.781030
0
LINE
8
0
10
59.941974
20
33.781030
11
60.527614
21
34.366670
0
LINE
8
0
10
60.527614
20
34.366670
11
60.741973
21
35.166669
0
LINE
8
0
10
60.741973
20
35.166669
11
60.741973
21
35.166669
0
LINE
8
0
10
94.291931
20
11.066704
11
94.205332
21
11.494699
0
LINE
8
0
10
94.205332
20
11.494699
11
93.969558
21
11.844171
0
LINE
8
0
10
93.969558
20
11.844171
11
93.619971
21
12.079774
0
LINE
8
0
10
93.619971
20
12.079774
11
93.191932
21
12.166163
0
LINE
8
0
10
93.191932
20
12.166163
11
92.763894
21
12.079774
0
LINE
8
0
10
92.763894
20
12.079774
11
92.414307
21
11.844171
0
LINE
8
0
10
92.414307
20
11.844171
11
92.178532
21
11.494699
0
LINE
8
0
10
92.178532
20
11.494699
11
92.091934
21
11.066704
0
LINE
8
0
10
92.091934
20
11.066704
11
92.178532
21
10.638708
0
LINE
8
0
10
92.178532
20
10.638708
11
92.414307
21
10.289236
0
LINE
8
0
10
92.414307
20
10.289236
11
92.763894
21
10.053633
0
LINE
8
0
10
92.763894
20
10.053633
11
93.191932
21
9.967244
0
LINE
8
0
10
93.191932
20
9.967244
11
93.619971
21
10.053633
0
LINE
8
0
10
93.619971
20
10.053633
11
93.969558
21
10.289236
0
LINE
8
0
10
93.969558
20
10.289236
11
94.205332
21
10.638708
0
LINE
8
0
10
94.205332
20
10.638708
11
94.291931
21
11.066704
0
LINE
8
0
10
94.291931
20
11.066704
11
94.291931
21
11.066704
0
LINE
8
0
10
137.041876
20
5.966707
11
137.041876
21
94.598170
0
LINE
8
0
10
137.041876
20
94.598170
11
84.941943
21
94.598170
0
LINE
8
0
10
84.941943
20
94.598170
11
84.941943
21
5.966707
0
LINE
8
0
10
84.941943
20
5.966707
11
137.041876
21
5.966707
0
LINE
8
0
10
129.891886
20
11.066704
11
129.805287
21
11.494699
0
LINE
8
0
10
129.805287
20
11.494699
11
129.569513
21
11.844171
0
LINE
8
0
10
129.569513
20
11.844171
11
129.219925
21
12.079774
0
LINE
8
0
10
129.219925
20
12.079774
11
128.791887
21
12.166163
0
LINE
8
0
10
128.791887
20
12.166163
11
128.363849
21
12.079774
0
LINE
8
0
10
128.363849
20
12.079774
11
128.014261
21
11.844171
0
LINE
8
0
10
128.014261
20
11.844171
11
127.778487
21
11.494699
0
LINE
8
0
10
127.778487
20
11.494699
11
127.691889
21
11.066704
0
LINE
8
0
10
127.691889
20
11.066704
11
127.778487
21
10.638708
0
LINE
8
0
10
127.778487
20
10.638708
11
128.014261
21
10.289236
0
LINE
8
0
10
128.014261
20
10.289236
11
128.363849
21
10.053633
0
LINE
8
0
10
128.363849
20
10.053633
11
128.791887
21
9.967244
0
LINE
8
0
10
128.791887
20
9.967244
11
129.219925
21
10.053633
0
LINE
8
0
10
129.219925
20
10.053633
11
129.569513
21
10.289236
0
LINE
8
0
10
129.569513
20
10.289236
11
129.805287
21
10.638708
0
LINE
8
0
10
129.805287
20
10.638708
11
129.891886
21
11.066704
0
LINE
8
0
10
129.891886
20
11.066704
11
129.891886
21
11.066704
0
LINE
8
0
10
94.291931
20
89.766604
11
94.205332
21
90.194600
0
LINE
8
0
10
94.205332
20
90.194600
11
93.969558
21
90.544072
0
LINE
8
0
10
93.969558
20
90.544072
11
93.619971
21
90.779675
0
LINE
8
0
10
93.619971
20
90.779675
11
93.191932
21
90.866064
0
LINE
8
0
10
93.191932
20
90.866064
11
92.763894
21
90.779675
0
LINE
8
0
10
92.763894
20
90.779675
11
92.414307
21
90.544072
0
LINE
8
0
10
92.414307
20
90.544072
11
92.178532
21
90.194600
0
LINE
8
0
10
92.178532
20
90.194600
11
92.091934
21
89.766604
0
LINE
8
0
10
92.091934
20
89.766604
11
92.178532
21
89.338609
0
LINE
8
0
10
92.178532
20
89.338609
11
92.414307
21
88.989137
0
LINE
8
0
10
92.414307
20
88.989137
11
92.763894
21
88.753534
0
LINE
8
0
10
92.763894
20
88.753534
11
93.191932
21
88.667145
0
LINE
8
0
10
93.191932
20
88.667145
11
93.619971
21
88.753534
0
LINE
8
0
10
93.619971
20
88.753534
11
93.969558
21
88.989137
0
LINE
8
0
10
93.969558
20
88.989137
11
94.205332
21
89.338609
0
LINE
8
0
10
94.205332
20
89.338609
11
94.291931
21
89.766604
0
LINE
8
0
10
94.291931
20
89.766604
11
94.291931
21
89.766604
0
LINE
8
0
10
129.891886
20
89.766604
11
129.805287
21
90.194600
0
LINE
8
0
10
129.805287
20
90.194600
11
129.569513
21
90.544072
0
LINE
8
0
10
129.569513
20
90.544072
11
129.219925
21
90.779675
0
LINE
8
0
10
129.219925
20
90.779675
11
128.791887
21
90.866064
0
LINE
8
0
10
128.791887
20
90.866064
11
128.363849
21
90.779675
0
LINE
8
0
10
128.363849
20
90.779675
11
128.014261
21
90.544072
0
LINE
8
0
10
128.014261
20
90.544072
11
127.778487
21
90.194600
0
LINE
8
0
10
127.778487
20
90.194600
11
127.691889
21
89.766604
0
LINE
8
0
10
127.691889
20
89.766604
11
127.778487
21
89.338609
0
LINE
8
0
10
127.778487
20
89.338609
11
128.014261
21
88.989137
0
LINE
8
0
10
128.014261
20
88.989137
11
128.363849
21
88.753534
0
LINE
8
0
10
128.363849
20
88.753534
11
128.791887
21
88.667145
0
LINE
8
0
10
128.791887
20
88.667145
11
129.219925
21
88.753534
0
LINE
8
0
10
129.219925
20
88.753534
11
129.569513
21
88.989137
0
LINE
8
0
10
129.569513
20
88.989137
11
129.805287
21
89.338609
0
LINE
8
0
10
129.805287
20
89.338609
11
129.891886
21
89.766604
0
LINE
8
0
10
129.891886
20
89.766604
11
129.891886
21
89.766604
0
LINE
8
0
10
117.452921
20
38.360107
11
117.672548
21
37.739289
0
LINE
8
0
10
117.672548
20
37.739289
11
117.714948
21
37.038234
0
LINE
8
0
10
117.714948
20
37.038234
11
117.268071
21
35.395415
0
LINE
8
0
10
117.268071
20
35.395415
11
116.112290
21
33.431650
0
LINE
8
0
10
116.112290
20
33.431650
11
114.247604
21
31.146939
0
LINE
8
0
10
114.247604
20
31.146939
11
117.422344
21
33.003935
0
LINE
8
0
10
117.422344
20
33.003935
11
119.672398
21
34.662189
0
LINE
8
0
10
119.672398
20
34.662189
11
120.997765
21
36.121702
0
LINE
8
0
10
120.997765
20
36.121702
11
121.313691
21
36.776930
0
LINE
8
0
10
121.313691
20
36.776930
11
121.398446
21
37.382473
0
LINE
8
0
10
121.398491
20
37.383214
11
117.453029
21
38.359525
0
LINE
8
0
10
116.055438
20
61.426418
11
117.326920
21
65.025404
0
LINE
8
0
10
117.326920
20
65.025404
11
118.552122
21
67.508756
0
LINE
8
0
10
118.552122
20
67.508756
11
119.147368
21
68.332070
0
LINE
8
0
10
119.147368
20
68.332070
11
119.731044
21
68.876475
0
LINE
8
0
10
119.731044
20
68.876475
11
120.303150
21
69.141971
0
LINE
8
0
10
120.303150
20
69.141971
11
120.863687
21
69.128559
0
LINE
8
0
10
120.863687
20
69.128559
11
121.249013
21
69.107588
0
LINE
8
0
10
121.249013
20
69.107588
11
121.541864
21
68.800059
0
LINE
8
0
10
121.541864
20
68.800059
11
121.850139
21
67.325331
0
LINE
8
0
10
121.850139
20
67.325331
11
121.788512
21
64.704375
0
LINE
8
0
10
121.788512
20
64.704375
11
121.356983
21
60.937191
0
LINE
8
0
10
121.356983
20
60.937191
11
120.865812
21
59.000158
0
LINE
8
0
10
120.865812
20
59.000158
11
120.316816
21
57.406981
0
LINE
8
0
10
120.316816
20
57.406981
11
119.709996
21
56.157661
0
LINE
8
0
10
119.709996
20
56.157661
11
119.045351
21
55.252198
0
LINE
8
0
10
119.045351
20
55.252198
11
118.322881
21
54.690590
0
LINE
8
0
10
118.322881
20
54.690590
11
117.542587
21
54.472839
0
LINE
8
0
10
117.542587
20
54.472839
11
116.704468
21
54.598945
0
LINE
8
0
10
116.704468
20
54.598945
11
115.808524
21
55.068907
0
LINE
8
0
10
115.808646
20
55.069000
11
116.055502
21
61.426400
0
LINE
8
0
10
116.918971
20
58.125425
11
118.511589
21
60.239562
0
LINE
8
0
10
118.511589
20
60.239562
11
120.165843
21
62.098971
0
LINE
8
0
10
120.165843
20
62.098971
11
121.881732
21
63.703654
0
LINE
8
0
10
121.881732
20
63.703654
11
123.659258
21
65.053611
0
LINE
8
0
10
123.659258
20
65.053611
11
125.498420
21
66.148840
0
LINE
8
0
10
125.498420
20
66.148840
11
127.399218
21
66.989343
0
LINE
8
0
10
127.399218
20
66.989343
11
129.361651
21
67.575120
0
LINE
8
0
10
129.361651
20
67.575120
11
131.385721
21
67.906170
0
LINE
8
0
10
131.385721
20
67.906170
11
132.423486
21
67.674346
0
LINE
8
0
10
132.423486
20
67.674346
11
132.988600
21
67.223488
0
LINE
8
0
10
132.988600
20
67.223488
11
133.081063
21
66.553596
0
LINE
8
0
10
133.081063
20
66.553596
11
132.700875
21
65.664670
0
LINE
8
0
10
132.700875
20
65.664670
11
131.848035
21
64.556709
0
LINE
8
0
10
131.848035
20
64.556709
11
130.522544
21
63.229715
0
LINE
8
0
10
130.522544
20
63.229715
11
126.453608
21
59.918623
0
LINE
8
0
10
126.453608
20
59.918623
11
128.549627
21
60.733775
0
LINE
8
0
10
128.549627
20
60.733775
11
129.196819
21
60.774532
0
LINE
8
0
10
129.196819
20
60.774532
11
129.576799
21
60.570744
0
LINE
8
0
10
129.576799
20
60.570744
11
129.946722
21
60.142857
0
LINE
8
0
10
129.946722
20
60.142857
11
130.070041
21
59.674212
0
LINE
8
0
10
130.070041
20
59.674212
11
129.946756
21
59.164810
0
LINE
8
0
10
129.946756
20
59.164810
11
129.576867
21
58.614650
0
LINE
8
0
10
129.576867
20
58.614650
11
128.097276
21
57.392057
0
LINE
8
0
10
128.097276
20
57.392057
11
125.631269
21
56.006433
0
LINE
8
0
10
125.631269
20
56.006433
11
123.275894
21
55.260017
0
LINE
8
0
10
123.275894
20
55.260017
11
121.010747
21
54.656660
0
LINE
8
0
10
121.010747
20
54.656660
11
118.624245
21
54.192772
0
LINE
8
0
10
118.624245
20
54.192772
11
116.569103
21
54.088029
0
LINE
8
0
10
116.569103
20
54.088029
11
115.807264
21
54.238985
0
LINE
8
0
10
115.807264
20
54.238985
11
115.298034
21
54.562106
0
LINE
8
0
10
115.298034
20
54.562106
11
115.098000
21
55.084850
0
LINE
8
0
10
115.098000
20
55.084850
11
115.263752
21
55.834679
0
LINE
8
0
10
115.263752
20
55.834679
11
115.851879
21
56.839051
0
LINE
8
0
10
115.851879
20
56.839051
11
116.918971
21
58.125425
0
LINE
8
0
10
117.257230
20
36.351155
11
117.871592
21
35.796995
0
LINE
8
0
10
117.871592
20
35.796995
11
118.606351
21
35.416662
0
LINE
8
0
10
118.606351
20
35.416662
11
119.434294
21
35.208729
0
LINE
8
0
10
119.434294
20
35.208729
11
120.328211
21
35.171769
0
LINE
8
0
10
120.328211
20
35.171769
11
121.260892
21
35.304357
0
LINE
8
0
10
121.260892
20
35.304357
11
122.205124
21
35.605065
0
LINE
8
0
10
122.205124
20
35.605065
11
123.133698
21
36.072469
0
LINE
8
0
10
123.133698
20
36.072469
11
124.019402
21
36.705140
0
LINE
8
0
10
124.019402
20
36.705140
11
124.798140
21
37.463674
0
LINE
8
0
10
124.798140
20
37.463674
11
125.419925
21
38.292047
0
LINE
8
0
10
125.419925
20
38.292047
11
125.878718
21
39.163921
0
LINE
8
0
10
125.878718
20
39.163921
11
126.168478
21
40.052960
0
LINE
8
0
10
126.168478
20
40.052960
11
126.283162
21
40.932825
0
LINE
8
0
10
126.283162
20
40.932825
11
126.216731
21
41.777180
0
LINE
8
0
10
126.216731
20
41.777180
11
125.963142
21
42.559687
0
LINE
8
0
10
125.963142
20
42.559687
11
125.516355
21
43.254009
0
LINE
8
0
10
125.516355
20
43.254009
11
124.901757
21
43.808094
0
LINE
8
0
10
124.901757
20
43.808094
11
124.166881
21
44.188394
0
LINE
8
0
10
124.166881
20
44.188394
11
123.338902
21
44.396325
0
LINE
8
0
10
123.338902
20
44.396325
11
122.444998
21
44.433304
0
LINE
8
0
10
122.444998
20
44.433304
11
121.512343
21
44.300747
0
LINE
8
0
10
121.512343
20
44.300747
11
120.568114
21
44.000072
0
LINE
8
0
10
120.568114
20
44.000072
11
119.639486
21
43.532694
0
LINE
8
0
10
119.639486
20
43.532694
11
118.753637
21
42.900031
0
LINE
8
0
10
118.753637
20
42.900031
11
117.975079
21
42.141665
0
LINE
8
0
10
117.975079
20
42.141665
11
117.353428
21
41.313393
0
LINE
8
0
10
117.353428
20
41.313393
11
116.894731
21
40.441562
0
LINE
8
0
10
116.894731
20
40.441562
11
116.605036
21
39.552519
0
LINE
8
0
10
116.605036
20
39.552519
11
116.490391
21
38.672610
0
LINE
8
0
10
116.490391
20
38.672610
11
116.556843
21
37.828182
0
LINE
8
0
10
116.556843
20
37.828182
11
116.810440
21
37.045581
0
LINE
8
0
10
116.810440
20
37.045581
11
117.257230
21
36.351155
0
LINE
8
0
10
116.638717
20
41.911546
11
116.817580
21
41.147678
0
LINE
8
0
10
116.817580
20
41.147678
11
117.210865
21
40.453985
0
LINE
8
0
10
117.210865
20
40.453985
11
117.794192
21
39.844082
0
LINE
8
0
10
117.794192
20
39.844082
11
118.543179
21
39.331583
0
LINE
8
0
10
118.543179
20
39.331583
11
119.433446
21
38.930099
0
LINE
8
0
10
119.433446
20
38.930099
11
120.440611
21
38.653246
0
LINE
8
0
10
120.440611
20
38.653246
11
121.540294
21
38.514637
0
LINE
8
0
10
121.540294
20
38.514637
11
122.708113
21
38.527884
0
LINE
8
0
10
122.708113
20
38.527884
11
123.863431
21
38.696843
0
LINE
8
0
10
123.863431
20
38.696843
11
124.927434
21
39.005194
0
LINE
8
0
10
124.927434
20
39.005194
11
125.878179
21
39.435678
0
LINE
8
0
10
125.878179
20
39.435678
11
126.693720
21
39.971035
0
LINE
8
0
10
126.693720
20
39.971035
11
127.352113
21
40.594007
0
LINE
8
0
10
127.352113
20
40.594007
11
127.831413
21
41.287332
0
LINE
8
0
10
127.831413
20
41.287332
11
128.109677
21
42.033751
0
LINE
8
0
10
128.109677
20
42.033751
11
128.164958
21
42.816005
0
LINE
8
0
10
128.164958
20
42.816005
11
127.986250
21
43.579951
0
LINE
8
0
10
127.986250
20
43.579951
11
127.593038
21
44.273683
0
LINE
8
0
10
127.593038
20
44.273683
11
127.009721
21
44.883600
0
LINE
8
0
10
127.009721
20
44.883600
11
126.260699
21
45.396102
0
LINE
8
0
10
126.260699
20
45.396102
11
125.370372
21
45.797587
0
LINE
8
0
10
125.370372
20
45.797587
11
124.363139
21
46.074456
0
LINE
8
0
10
124.363139
20
46.074456
11
123.263402
21
46.213106
0
LINE
8
0
10
123.263402
20
46.213106
11
122.095559
21
46.199939
0
LINE
8
0
10
122.095559
20
46.199939
11
120.940419
21
46.031002
0
LINE
8
0
10
120.940419
20
46.031002
11
119.876543
21
45.722700
0
LINE
8
0
10
119.876543
20
45.722700
11
118.925875
21
45.292273
0
LINE
8
0
10
118.925875
20
45.292273
11
118.110359
21
44.756956
0
LINE
8
0
10
118.110359
20
44.756956
11
117.451941
21
44.133987
0
LINE
8
0
10
117.451941
20
44.133987
11
116.972565
21
43.440604
0
LINE
8
0
10
116.972565
20
43.440604
11
116.694175
21
42.694045
0
LINE
8
0
10
116.694175
20
42.694045
11
116.638717
21
41.911546
0
LINE
8
0
10
116.959627
20
46.551750
11
117.078610
21
45.541531
0
LINE
8
0
10
117.078610
20
45.541531
11
117.419857
21
44.600610
0
LINE
8
0
10
117.419857
20
44.600610
11
117.959816
21
43.749146
0
LINE
8
0
10
117.959816
20
43.749146
11
118.674936
21
43.007294
0
LINE
8
0
10
118.674936
20
43.007294
11
119.541665
21
42.395210
0
LINE
8
0
10
119.541665
20
42.395210
11
120.536450
21
41.933052
0
LINE
8
0
10
120.536450
20
41.933052
11
121.635740
21
41.640976
0
LINE
8
0
10
121.635740
20
41.640976
11
122.815984
21
41.539138
0
LINE
8
0
10
122.815984
20
41.539138
11
123.996227
21
41.640976
0
LINE
8
0
10
123.996227
20
41.640976
11
125.095517
21
41.933052
0
LINE
8
0
10
125.095517
20
41.933052
11
126.090303
21
42.395210
0
LINE
8
0
10
126.090303
20
42.395210
11
126.957031
21
43.007293
0
LINE
8
0
10
126.957031
20
43.007293
11
127.672151
21
43.749145
0
LINE
8
0
10
127.672151
20
43.749145
11
128.212111
21
44.600609
0
LINE
8
0
10
128.212111
20
44.600609
11
128.553358
21
45.541530
0
LINE
8
0
10
128.553358
20
45.541530
11
128.672341
21
46.551750
0
LINE
8
0
10
128.672341
20
46.551750
11
128.553358
21
47.561970
0
LINE
8
0
10
128.553358
20
47.561970
11
128.212111
21
48.502890
0
LINE
8
0
10
128.212111
20
48.502890
11
127.672151
21
49.354354
0
LINE
8
0
10
127.672151
20
49.354354
11
126.957031
21
50.096206
0
LINE
8
0
10
126.957031
20
50.096206
11
126.090303
21
50.708290
0
LINE
8
0
10
126.090303
20
50.708290
11
125.095517
21
51.170448
0
LINE
8
0
10
125.095517
20
51.170448
11
123.996227
21
51.462524
0
LINE
8
0
10
123.996227
20
51.462524
11
122.815984
21
51.564362
0
LINE
8
0
10
122.815984
20
51.564362
11
121.635740
21
51.462524
0
LINE
8
0
10
121.635740
20
51.462524
11
120.536450
21
51.170448
0
LINE
8
0
10
120.536450
20
51.170448
11
119.541664
21
50.708290
0
LINE
8
0
10
119.541664
20
50.708290
11
118.674935
21
50.096206
0
LINE
8
0
10
118.674935
20
50.096206
11
117.959815
21
49.354354
0
LINE
8
0
10
117.959815
20
49.354354
11
117.419856
21
48.502890
0
LINE
8
0
10
117.419856
20
48.502890
11
117.078609
21
47.561970
0
LINE
8
0
10
117.078609
20
47.561970
11
116.959627
21
46.551750
0
LINE
8
0
10
118.302629
20
51.375990
11
117.910867
21
50.584999
0
LINE
8
0
10
117.910867
20
50.584999
11
117.687729
21
49.761413
0
LINE
8
0
10
117.687729
20
49.761413
11
117.628009
21
48.928997
0
LINE
8
0
10
117.628009
20
48.928997
11
117.726502
21
48.111516
0
LINE
8
0
10
117.726502
20
48.111516
11
117.978000
21
47.332735
0
LINE
8
0
10
117.978000
20
47.332735
11
118.377299
21
46.616418
0
LINE
8
0
10
118.377299
20
46.616418
11
118.919192
21
45.986330
0
LINE
8
0
10
118.919192
20
45.986330
11
119.598475
21
45.466235
0
LINE
8
0
10
119.598475
20
45.466235
11
120.371501
21
45.096372
0
LINE
8
0
10
120.371501
20
45.096372
11
121.182258
21
44.897546
0
LINE
8
0
10
121.182258
20
44.897546
11
122.006984
21
44.863765
0
LINE
8
0
10
122.006984
20
44.863765
11
122.821918
21
44.989035
0
LINE
8
0
10
122.821918
20
44.989035
11
123.603297
21
45.267362
0
LINE
8
0
10
123.603297
20
45.267362
11
124.327362
21
45.692752
0
LINE
8
0
10
124.327362
20
45.692752
11
124.970349
21
46.259212
0
LINE
8
0
10
124.970349
20
46.259212
11
125.508497
21
46.960748
0
LINE
8
0
10
125.508497
20
46.960748
11
125.900259
21
47.751471
0
LINE
8
0
10
125.900259
20
47.751471
11
126.123398
21
48.574859
0
LINE
8
0
10
126.123398
20
48.574859
11
126.183118
21
49.407141
0
LINE
8
0
10
126.183118
20
49.407141
11
126.084627
21
50.224544
0
LINE
8
0
10
126.084627
20
50.224544
11
125.833128
21
51.003299
0
LINE
8
0
10
125.833128
20
51.003299
11
125.433829
21
51.719634
0
LINE
8
0
10
125.433829
20
51.719634
11
124.891936
21
52.349778
0
LINE
8
0
10
124.891936
20
52.349778
11
124.212654
21
52.869960
0
LINE
8
0
10
124.212654
20
52.869960
11
123.439628
21
53.239736
0
LINE
8
0
10
123.439628
20
53.239736
11
122.628871
21
53.438505
0
LINE
8
0
10
122.628871
20
53.438505
11
121.804144
21
53.472268
0
LINE
8
0
10
121.804144
20
53.472268
11
120.989210
21
53.347025
0
LINE
8
0
10
120.989210
20
53.347025
11
120.207830
21
53.068776
0
LINE
8
0
10
120.207830
20
53.068776
11
119.483766
21
52.643520
0
LINE
8
0
10
119.483766
20
52.643520
11
118.840778
21
52.077258
0
LINE
8
0
10
118.840778
20
52.077258
11
118.302629
21
51.375990
0
LINE
8
0
10
121.517974
20
47.529662
11
116.317769
21
47.094118
0
LINE
8
0
10
116.317769
20
47.094118
11
114.131519
21
47.099865
0
LINE
8
0
10
114.131519
20
47.099865
11
112.221171
21
47.254624
0
LINE
8
0
10
112.221171
20
47.254624
11
110.586724
21
47.558396
0
LINE
8
0
10
110.586724
20
47.558396
11
109.228179
21
48.011181
0
LINE
8
0
10
109.228179
20
48.011181
11
108.145536
21
48.612978
0
LINE
8
0
10
108.145536
20
48.612978
11
107.338794
21
49.363788
0
LINE
8
0
10
107.338794
20
49.363788
11
108.251931
21
51.308470
0
LINE
8
0
10
108.251931
20
51.308470
11
109.326888
21
52.985711
0
LINE
8
0
10
109.326888
20
52.985711
11
110.563664
21
54.395512
0
LINE
8
0
10
110.563664
20
54.395512
11
111.962260
21
55.537872
0
LINE
8
0
10
111.962260
20
55.537872
11
113.522675
21
56.412793
0
LINE
8
0
10
113.522675
20
56.412793
11
115.244909
21
57.020273
0
LINE
8
0
10
115.244909
20
57.020273
11
117.128962
21
57.360314
0
LINE
8
0
10
117.128962
20
57.360314
11
119.174835
21
57.432914
0
LINE
8
0
10
119.174835
20
57.432914
11
120.650742
21
56.727986
0
LINE
8
0
10
120.650742
20
56.727986
11
121.996984
21
55.879067
0
LINE
8
0
10
121.996984
20
55.879067
11
123.305649
21
54.727836
0
LINE
8
0
10
123.305649
20
54.727836
11
123.842038
21
54.045570
0
LINE
8
0
10
123.842038
20
54.045570
11
124.244409
21
53.295786
0
LINE
8
0
10
124.244409
20
53.295786
11
124.471222
21
52.481171
0
LINE
8
0
10
124.471222
20
52.481171
11
124.480935
21
51.604411
0
LINE
8
0
10
124.480935
20
51.604411
11
124.232008
21
50.668194
0
LINE
8
0
10
124.232008
20
50.668194
11
123.682899
21
49.675206
0
LINE
8
0
10
123.682899
20
49.675206
11
122.792068
21
48.628133
0
LINE
8
0
10
122.792068
20
48.628133
11
121.517974
21
47.529662
0
LINE
8
0
10
105.256938
20
56.350925
11
104.428829
21
55.677354
0
LINE
8
0
10
104.428829
20
55.677354
11
103.550116
21
55.161610
0
LINE
8
0
10
103.550116
20
55.161610
11
102.647187
21
54.806877
0
LINE
8
0
10
102.647187
20
54.806877
11
101.746430
21
54.616337
0
LINE
8
0
10
101.746430
20
54.616337
11
100.874234
21
54.593173
0
LINE
8
0
10
100.874234
20
54.593173
11
100.056987
21
54.740566
0
LINE
8
0
10
100.056987
20
54.740566
11
99.321077
21
55.061701
0
LINE
8
0
10
99.321077
20
55.061701
11
98.692893
21
55.559759
0
LINE
8
0
10
98.692893
20
55.559759
11
98.220546
21
56.205159
0
LINE
8
0
10
98.220546
20
56.205159
11
97.931402
21
56.949063
0
LINE
8
0
10
97.931402
20
56.949063
11
97.821037
21
57.765469
0
LINE
8
0
10
97.821037
20
57.765469
11
97.885025
21
58.628371
0
LINE
8
0
10
97.885025
20
58.628371
11
98.118942
21
59.511767
0
LINE
8
0
10
98.118942
20
59.511767
11
98.518364
21
60.389652
0
LINE
8
0
10
98.518364
20
60.389652
11
99.078867
21
61.236022
0
LINE
8
0
10
99.078867
20
61.236022
11
99.796024
21
62.024873
0
LINE
8
0
10
99.796024
20
62.024873
11
100.624134
21
62.698523
0
LINE
8
0
10
100.624134
20
62.698523
11
101.502848
21
63.214303
0
LINE
8
0
10
101.502848
20
63.214303
11
102.405778
21
63.569041
0
LINE
8
0
10
102.405778
20
63.569041
11
103.306535
21
63.759564
0
LINE
8
0
10
103.306535
20
63.759564
11
104.178730
21
63.782698
0
LINE
8
0
10
104.178730
20
63.782698
11
104.995977
21
63.635271
0
LINE
8
0
10
104.995977
20
63.635271
11
105.731886
21
63.314109
0
LINE
8
0
10
105.731886
20
63.314109
11
106.360069
21
62.816040
0
LINE
8
0
10
106.360069
20
62.816040
11
106.832483
21
62.170562
0
LINE
8
0
10
106.832483
20
62.170562
11
107.121637
21
61.426620
0
LINE
8
0
10
107.121637
20
61.426620
11
107.231974
21
60.610210
0
LINE
8
0
10
107.231974
20
60.610210
11
107.167938
21
59.747324
0
LINE
8
0
10
107.167938
20
59.747324
11
106.933973
21
58.863959
0
LINE
8
0
10
106.933973
20
58.863959
11
106.534522
21
57.986108
0
LINE
8
0
10
106.534522
20
57.986108
11
105.974029
21
57.139765
0
LINE
8
0
10
105.974029
20
57.139765
11
105.256938
21
56.350925
0
LINE
8
0
10
101.962176
20
49.107384
11
103.424072
21
48.734217
0
LINE
8
0
10
103.424072
20
48.734217
11
105.016694
21
48.729639
0
LINE
8
0
10
105.016694
20
48.729639
11
106.740042
21
49.093650
0
LINE
8
0
10
106.740042
20
49.093650
11
108.594116
21
49.826250
0
LINE
8
0
10
108.594116
20
49.826250
11
110.578916
21
50.927438
0
LINE
8
0
10
110.578916
20
50.927438
11
112.694442
21
52.397216
0
LINE
8
0
10
112.694442
20
52.397216
11
114.940694
21
54.235582
0
LINE
8
0
10
114.940694
20
54.235582
11
117.317671
21
56.442537
0
LINE
8
0
10
117.317671
20
56.442537
11
117.982735
21
58.225539
0
LINE
8
0
10
117.982735
20
58.225539
11
118.069857
21
59.043833
0
LINE
8
0
10
118.069857
20
59.043833
11
117.993373
21
59.813324
0
LINE
8
0
10
117.993373
20
59.813324
11
117.753283
21
60.534011
0
LINE
8
0
10
117.753283
20
60.534011
11
117.349586
21
61.205893
0
LINE
8
0
10
117.349586
20
61.205893
11
116.051374
21
62.403246
0
LINE
8
0
10
116.051374
20
62.403246
11
114.606744
21
63.279632
0
LINE
8
0
10
114.606744
20
63.279632
11
113.168103
21
63.911227
0
LINE
8
0
10
113.168103
20
63.911227
11
111.735449
21
64.298031
0
LINE
8
0
10
111.735449
20
64.298031
11
110.308784
21
64.440043
0
LINE
8
0
10
110.308784
20
64.440043
11
108.888107
21
64.337264
0
LINE
8
0
10
108.888107
20
64.337264
11
107.473419
21
63.989693
0
LINE
8
0
10
107.473419
20
63.989693
11
106.064719
21
63.397331
0
LINE
8
0
10
106.064719
20
63.397331
11
104.662007
21
62.560178
0
LINE
8
0
10
104.662007
20
62.560178
11
101.641555
21
60.888632
0
LINE
8
0
10
101.641555
20
60.888632
11
99.224201
21
59.168079
0
LINE
8
0
10
99.224201
20
59.168079
11
97.409944
21
57.398519
0
LINE
8
0
10
97.409944
20
57.398519
11
96.198785
21
55.579952
0
LINE
8
0
10
96.198785
20
55.579952
11
95.590724
21
53.712377
0
LINE
8
0
10
95.590724
20
53.712377
11
95.512855
21
52.760211
0
LINE
8
0
10
95.512855
20
52.760211
11
95.585760
21
51.795794
0
LINE
8
0
10
95.585760
20
51.795794
11
96.183894
21
49.830205
0
LINE
8
0
10
96.183894
20
49.830205
11
97.385126
21
47.815607
0
LINE
8
0
10
97.385126
20
47.815607
11
98.067265
21
47.589866
0
LINE
8
0
10
98.067265
20
47.589866
11
99.006486
21
47.697570
0
LINE
8
0
10
99.006486
20
47.697570
11
100.202789
21
48.138722
0
LINE
8
0
10
100.202789
20
48.138722
11
101.656173
21
48.913320
0
LINE
8
0
10
101.656101
20
48.913212
11
101.962224
21
49.107415
0
LINE
8
0
10
109.753219
20
57.605840
11
108.925188
21
56.932269
0
LINE
8
0
10
108.925188
20
56.932269
11
108.046511
21
56.416527
0
LINE
8
0
10
108.046511
20
56.416527
11
107.143587
21
56.061794
0
LINE
8
0
10
107.143587
20
56.061794
11
106.242813
21
55.871254
0
LINE
8
0
10
106.242813
20
55.871254
11
105.370587
21
55.848090
0
LINE
8
0
10
105.370587
20
55.848090
11
104.553306
21
55.995483
0
LINE
8
0
10
104.553306
20
55.995483
11
103.817370
21
56.316618
0
LINE
8
0
10
103.817370
20
56.316618
11
103.189174
21
56.814676
0
LINE
8
0
10
103.189174
20
56.814676
11
102.716816
21
57.460075
0
LINE
8
0
10
102.716816
20
57.460075
11
102.427641
21
58.203979
0
LINE
8
0
10
102.427641
20
58.203979
11
102.317232
21
59.020385
0
LINE
8
0
10
102.317232
20
59.020385
11
102.381171
21
59.883287
0
LINE
8
0
10
102.381171
20
59.883287
11
102.615039
21
60.766683
0
LINE
8
0
10
102.615039
20
60.766683
11
103.014418
21
61.644568
0
LINE
8
0
10
103.014418
20
61.644568
11
103.574889
21
62.490939
0
LINE
8
0
10
103.574889
20
62.490939
11
104.292036
21
63.279791
0
LINE
8
0
10
104.292036
20
63.279791
11
105.120079
21
63.953362
0
LINE
8
0
10
105.120079
20
63.953362
11
105.998783
21
64.469105
0
LINE
8
0
10
105.998783
20
64.469105
11
106.901740
21
64.823838
0
LINE
8
0
10
106.901740
20
64.823838
11
107.802545
21
65.014378
0
LINE
8
0
10
107.802545
20
65.014378
11
108.674788
21
65.037542
0
LINE
8
0
10
108.674788
20
65.037542
11
109.492064
21
64.890148
0
LINE
8
0
10
109.492064
20
64.890148
11
110.227964
21
64.569013
0
LINE
8
0
10
110.227964
20
64.569013
11
110.856081
21
64.070955
0
LINE
8
0
10
110.856081
20
64.070955
11
111.328506
21
63.425466
0
LINE
8
0
10
111.328506
20
63.425466
11
111.617691
21
62.681498
0
LINE
8
0
10
111.617691
20
62.681498
11
111.728071
21
61.865055
0
LINE
8
0
10
111.728071
20
61.865055
11
111.664085
21
61.002140
0
LINE
8
0
10
111.664085
20
61.002140
11
111.430170
21
60.118757
0
LINE
8
0
10
111.430170
20
60.118757
11
111.030762
21
59.240910
0
LINE
8
0
10
111.030762
20
59.240910
11
110.470299
21
58.394603
0
LINE
8
0
10
110.470299
20
58.394603
11
109.753219
21
57.605840
0
LINE
8
0
10
106.749853
20
52.676905
11
113.752571
21
58.502493
0
LINE
8
0
10
113.752682
20
58.502438
11
114.398130
21
58.403152
0
LINE
8
0
10
114.398130
20
58.403152
11
114.759189
21
58.105297
0
LINE
8
0
10
114.759189
20
58.105297
11
114.835860
21
57.608870
0
LINE
8
0
10
114.835860
20
57.608870
11
114.628143
21
56.913873
0
LINE
8
0
10
114.628143
20
56.913873
11
112.757002
21
55.060232
0
LINE
8
0
10
112.757002
20
55.060232
11
110.820236
21
53.736202
0
LINE
8
0
10
110.820236
20
53.736202
11
108.817844
21
52.941785
0
LINE
8
0
10
108.817844
20
52.941785
11
106.749827
21
52.676979
0
LINE
8
0
10
101.464543
20
48.793091
11
107.134821
21
53.021921
0
LINE
8
0
10
113.671641
20
58.451484
11
114.072340
21
58.382707
0
LINE
8
0
10
114.072340
20
58.382707
11
114.288122
21
58.054139
0
LINE
8
0
10
114.288122
20
58.054139
11
114.318987
21
57.465779
0
LINE
8
0
10
114.318987
20
57.465779
11
114.164935
21
56.617628
0
LINE
8
0
10
114.164935
20
56.617628
11
114.434739
21
56.869938
0
LINE
8
0
10
114.434739
20
56.869938
11
114.843107
21
57.443077
0
LINE
8
0
10
114.843107
20
57.443077
11
114.911449
21
57.763993
0
LINE
8
0
10
114.911449
20
57.763993
11
114.789066
21
58.061956
0
LINE
8
0
10
114.789066
20
58.061956
11
114.400837
21
58.302582
0
LINE
8
0
10
114.400837
20
58.302582
11
113.671641
21
58.451484
0
LINE
8
0
10
112.451881
20
57.594444
11
112.972316
21
55.588376
0
LINE
8
0
10
110.219330
20
55.639705
11
110.712777
21
53.927853
0
LINE
8
0
10
108.728688
20
52.747720
11
105.915565
21
51.905600
0
LINE
8
0
10
105.915565
20
51.905600
11
106.765003
21
52.747720
0
LINE
8
0
10
106.765003
20
52.747720
11
108.728688
21
52.747720
0
LINE
8
0
10
113.505451
20
58.642193
11
114.532033
21
59.589665
0
LINE
8
0
10
114.531922
20
59.589580
11
114.839620
21
58.971338
0
LINE
8
0
10
114.839620
20
58.971338
11
115.045001
21
57.852757
0
LINE
8
0
10
115.045059
20
57.852677
11
113.505451
21
58.642193
0
LINE
8
0
10
113.717646
20
58.100327
11
114.354762
21
58.747497
0
LINE
8
0
10
114.354662
20
58.747460
11
114.447493
21
57.739327
0
LINE
8
0
10
114.447493
20
57.739327
11
114.195293
21
56.905473
0
LINE
8
0
10
114.195219
20
56.905470
11
113.717646
21
58.100327
0
LINE
8
0
10
107.507111
20
63.403113
11
107.741865
21
62.841110
0
LINE
8
0
10
107.741865
20
62.841110
11
108.308578
21
62.608422
0
LINE
8
0
10
108.308578
20
62.608422
11
108.875288
21
62.841110
0
LINE
8
0
10
108.875288
20
62.841110
11
109.110042
21
63.403113
0
LINE
8
0
10
109.110042
20
63.403113
11
108.875288
21
63.965011
0
LINE
8
0
10
108.875288
20
63.965011
11
108.308578
21
64.197801
0
LINE
8
0
10
108.308578
20
64.197801
11
107.741865
21
63.965011
0
LINE
8
0
10
107.741865
20
63.965011
11
107.507111
21
63.403113
0
LINE
8
0
10
97.548834
20
47.898546
11
97.311877
21
49.798612
0
LINE
8
0
10
97.311877
20
49.798612
11
97.273187
21
51.580386
0
LINE
8
0
10
97.273187
20
51.580386
11
97.432761
21
53.243868
0
LINE
8
0
10
97.432761
20
53.243868
11
97.790602
21
54.789058
0
LINE
8
0
10
97.790602
20
54.789058
11
98.346708
21
56.215956
0
LINE
8
0
10
98.346708
20
56.215956
11
99.101079
21
57.524562
0
LINE
8
0
10
99.101079
20
57.524562
11
100.053717
21
58.714876
0
LINE
8
0
10
100.053717
20
58.714876
11
101.204619
21
59.786898
0
LINE
8
0
10
101.204619
20
59.786898
11
100.021836
21
58.885657
0
LINE
8
0
10
100.021836
20
58.885657
11
99.027222
21
57.834462
0
LINE
8
0
10
99.027222
20
57.834462
11
98.220777
21
56.633315
0
LINE
8
0
10
98.220777
20
56.633315
11
97.602501
21
55.282215
0
LINE
8
0
10
97.602501
20
55.282215
11
97.172395
21
53.781162
0
LINE
8
0
10
97.172395
20
53.781162
11
96.930458
21
52.130156
0
LINE
8
0
10
96.930458
20
52.130156
11
96.876691
21
50.329197
0
LINE
8
0
10
96.876691
20
50.329197
11
97.011093
21
48.378286
0
LINE
8
0
10
97.011082
20
48.378225
11
97.548715
21
47.898536
0
LINE
8
0
10
128.379349
20
56.773748
11
130.272869
21
56.731956
0
LINE
8
0
10
130.272869
20
56.731956
11
131.597271
21
56.375116
0
LINE
8
0
10
131.597271
20
56.375116
11
132.046054
21
56.078551
0
LINE
8
0
10
132.046054
20
56.078551
11
132.352557
21
55.703225
0
LINE
8
0
10
132.352557
20
55.703225
11
132.516781
21
55.249136
0
LINE
8
0
10
132.516781
20
55.249136
11
132.538726
21
54.716284
0
LINE
8
0
10
132.538726
20
54.716284
11
132.584752
21
53.277502
0
LINE
8
0
10
132.584752
20
53.277502
11
132.372375
21
52.182197
0
LINE
8
0
10
132.372375
20
52.182197
11
131.901596
21
51.430367
0
LINE
8
0
10
131.901596
20
51.430367
11
131.172414
21
51.022012
0
LINE
8
0
10
131.172414
20
51.022012
11
130.746390
21
51.003174
0
LINE
8
0
10
130.746390
20
51.003174
11
130.379825
21
51.154550
0
LINE
8
0
10
130.379825
20
51.154550
11
129.825076
21
51.967939
0
LINE
8
0
10
129.825076
20
51.967939
11
128.953853
21
51.553129
0
LINE
8
0
10
128.953853
20
51.553129
11
128.226890
21
51.394487
0
LINE
8
0
10
128.226890
20
51.394487
11
127.644188
21
51.492011
0
LINE
8
0
10
127.644188
20
51.492011
11
127.205746
21
51.845701
0
LINE
8
0
10
127.205746
20
51.845701
11
126.677845
21
52.221820
0
LINE
8
0
10
126.677845
20
52.221820
11
126.606002
21
52.736813
0
LINE
8
0
10
126.606002
20
52.736813
11
126.990217
21
53.390679
0
LINE
8
0
10
126.990217
20
53.390679
11
127.830490
21
54.183419
0
LINE
8
0
10
127.830504
20
54.183440
11
128.379249
21
56.773708
0
LINE
8
0
10
120.692390
20
57.096555
11
119.823008
21
57.231829
0
LINE
8
0
10
119.823008
20
57.231829
11
119.114582
21
57.195857
0
LINE
8
0
10
119.114582
20
57.195857
11
118.567111
21
56.988639
0
LINE
8
0
10
118.567111
20
56.988639
11
118.180595
21
56.610174
0
LINE
8
0
10
118.180595
20
56.610174
11
117.955035
21
56.060463
0
LINE
8
0
10
117.955035
20
56.060463
11
117.890431
21
55.339506
0
LINE
8
0
10
117.890431
20
55.339506
11
118.244087
21
53.383852
0
LINE
8
0
10
118.244087
20
53.383852
11
118.908931
21
52.339722
0
LINE
8
0
10
118.908931
20
52.339722
11
119.265124
21
52.095273
0
LINE
8
0
10
119.265124
20
52.095273
11
119.637164
21
52.035903
0
LINE
8
0
10
119.637164
20
52.035903
11
120.025052
21
52.161610
0
LINE
8
0
10
120.025052
20
52.161610
11
120.428787
21
52.472395
0
LINE
8
0
10
120.428787
20
52.472395
11
121.283799
21
53.649200
0
LINE
8
0
10
121.283799
20
53.649200
11
122.624041
21
53.847972
0
LINE
8
0
10
122.624041
20
53.847972
11
123.064621
21
54.129676
0
LINE
8
0
10
123.064621
20
54.129676
11
123.352173
21
54.532923
0
LINE
8
0
10
123.352173
20
54.532923
11
123.486698
21
55.057716
0
LINE
8
0
10
123.486698
20
55.057716
11
123.468196
21
55.704053
0
LINE
8
0
10
123.468196
20
55.704053
11
122.972109
21
57.361360
0
LINE
8
0
10
122.972231
20
57.361347
11
124.322927
21
55.240185
0
LINE
8
0
10
124.322969
20
55.240203
11
124.523708
21
56.748422
0
LINE
8
0
10
124.523708
20
56.748422
11
124.956525
21
57.825722
0
LINE
8
0
10
124.956525
20
57.825722
11
125.621420
21
58.472101
0
LINE
8
0
10
125.621420
20
58.472101
11
126.518394
21
58.687561
0
LINE
8
0
10
126.518394
20
58.687561
11
125.833534
21
59.010879
0
LINE
8
0
10
125.833534
20
59.010879
11
124.206799
21
59.416960
0
LINE
8
0
10
124.206799
20
59.416960
11
123.240594
21
59.386907
0
LINE
8
0
10
123.240594
20
59.386907
11
122.279360
21
59.060590
0
LINE
8
0
10
122.279360
20
59.060590
11
121.403244
21
58.332356
0
LINE
8
0
10
121.403244
20
58.332356
11
120.692390
21
57.096555
0
LINE
8
0
10
123.930500
20
56.429798
11
122.970477
21
57.147036
0
LINE
8
0
10
122.970477
20
57.147036
11
122.441948
21
58.183155
0
LINE
8
0
10
122.442006
20
58.183141
11
123.382070
21
58.183141
0
LINE
8
0
10
123.382070
20
58.183141
11
123.930550
21
56.429750
0
LINE
8
0
10
125.571378
20
59.057530
11
127.651607
21
57.954802
0
LINE
8
0
10
127.651607
20
57.954802
11
128.961543
21
56.956969
0
LINE
8
0
10
128.961543
20
56.956969
11
127.934098
21
55.485765
0
LINE
8
0
10
127.934098
20
55.485765
11
127.523132
21
54.224887
0
LINE
8
0
10
127.523132
20
54.224887
11
126.829830
21
53.903315
0
LINE
8
0
10
126.829830
20
53.903315
11
126.085063
21
53.883715
0
LINE
8
0
10
126.085063
20
53.883715
11
125.288832
21
54.166088
0
LINE
8
0
10
125.288832
20
54.166088
11
124.441137
21
54.750434
0
LINE
8
0
10
124.441137
20
54.750434
11
124.314491
21
55.320161
0
LINE
8
0
10
124.314491
20
55.320161
11
124.197402
21
56.628433
0
LINE
8
0
10
124.197402
20
56.628433
11
124.265839
21
57.371782
0
LINE
8
0
10
124.265839
20
57.371782
11
124.484741
21
58.074479
0
LINE
8
0
10
124.484741
20
58.074479
11
124.903468
21
58.661427
0
LINE
8
0
10
124.903468
20
58.661427
11
125.571378
21
59.057530
0
LINE
8
0
10
104.054877
20
63.708574
11
102.922125
21
64.877678
0
LINE
8
0
10
102.922125
20
64.877678
11
101.681483
21
65.878688
0
LINE
8
0
10
101.681483
20
65.878688
11
100.332949
21
66.711601
0
LINE
8
0
10
100.332949
20
66.711601
11
98.876525
21
67.376420
0
LINE
8
0
10
98.876525
20
67.376420
11
97.312210
21
67.873143
0
LINE
8
0
10
97.312210
20
67.873143
11
95.640004
21
68.201770
0
LINE
8
0
10
95.640004
20
68.201770
11
93.859907
21
68.362302
0
LINE
8
0
10
93.859907
20
68.362302
11
91.971919
21
68.354739
0
LINE
8
0
10
91.971919
20
68.354739
11
91.571220
21
68.026103
0
LINE
8
0
10
91.571220
20
68.026103
11
91.478761
21
67.773900
0
LINE
8
0
10
91.478761
20
67.773900
11
91.694542
21
67.598131
0
LINE
8
0
10
91.694542
20
67.598131
11
92.218563
21
67.498794
0
LINE
8
0
10
92.218563
20
67.498794
11
93.293507
21
67.760509
0
LINE
8
0
10
93.293507
20
67.760509
11
94.484050
21
67.812082
0
LINE
8
0
10
94.484050
20
67.812082
11
95.790192
21
67.653516
0
LINE
8
0
10
95.790192
20
67.653516
11
97.211932
21
67.284809
0
LINE
8
0
10
97.211932
20
67.284809
11
100.402207
21
65.916972
0
LINE
8
0
10
100.402207
20
65.916972
11
104.054877
21
63.708574
0
LINE
8
0
10
108.986717
20
64.442278
11
107.129603
21
66.375453
0
LINE
8
0
10
107.129603
20
66.375453
11
105.010495
21
68.018311
0
LINE
8
0
10
105.010495
20
68.018311
11
102.629393
21
69.370850
0
LINE
8
0
10
102.629393
20
69.370850
11
99.986297
21
70.433072
0
LINE
8
0
10
99.986297
20
70.433072
11
99.308121
21
70.723390
0
LINE
8
0
10
99.308121
20
70.723390
11
98.999847
21
70.983148
0
LINE
8
0
10
98.999847
20
70.983148
11
99.061474
21
71.212346
0
LINE
8
0
10
99.061474
20
71.212346
11
99.493003
21
71.410984
0
LINE
8
0
10
99.493003
20
71.410984
11
100.051718
21
71.647865
0
LINE
8
0
10
100.051718
20
71.647865
11
100.803075
21
71.563818
0
LINE
8
0
10
100.803075
20
71.563818
11
101.747073
21
71.158842
0
LINE
8
0
10
101.747073
20
71.158842
11
102.883713
21
70.432938
0
LINE
8
0
10
102.883713
20
70.432938
11
105.734917
21
68.018344
0
LINE
8
0
10
105.734917
20
68.018344
11
109.356686
21
64.320038
0
LINE
8
0
10
109.356789
20
64.320144
11
108.986638
21
64.442382
0
LINE
8
0
10
103.211399
20
45.962508
11
103.518092
21
46.611369
0
LINE
8
0
10
103.518092
20
46.611369
11
104.045004
21
47.215200
0
LINE
8
0
10
104.045004
20
47.215200
11
105.538582
21
48.223829
0
LINE
8
0
10
105.538582
20
48.223829
11
107.250330
21
48.860506
0
LINE
8
0
10
107.250330
20
48.860506
11
108.738446
21
48.997344
0
LINE
8
0
10
108.738446
20
48.997344
11
108.916662
21
48.356544
0
LINE
8
0
10
108.916662
20
48.356544
11
108.942673
21
47.700747
0
LINE
8
0
10
108.942673
20
47.700747
11
108.609837
21
46.409792
0
LINE
8
0
10
108.609837
20
46.409792
11
107.883450
21
45.255747
0
LINE
8
0
10
107.883450
20
45.255747
11
106.907029
21
44.369880
0
LINE
8
0
10
106.907029
20
44.369880
11
105.873083
21
43.944770
0
LINE
8
0
10
105.873083
20
43.944770
11
104.371619
21
43.633396
0
LINE
8
0
10
104.371619
20
43.633396
11
103.699104
21
43.638325
0
LINE
8
0
10
103.699104
20
43.638325
11
103.213953
21
43.813248
0
LINE
8
0
10
103.213953
20
43.813248
11
103.017580
21
44.205349
0
LINE
8
0
10
103.017580
20
44.205349
11
103.211399
21
44.861816
0
LINE
8
0
10
103.211320
20
44.861917
11
103.211320
21
45.962582
0
LINE
8
0
10
102.369822
20
45.188960
11
102.553892
21
44.213347
0
LINE
8
0
10
102.553892
20
44.213347
11
103.055891
21
43.416596
0
LINE
8
0
10
103.055891
20
43.416596
11
103.800505
21
42.879382
0
LINE
8
0
10
103.800505
20
42.879382
11
104.712418
21
42.682382
0
LINE
8
0
10
104.712418
20
42.682382
11
105.624260
21
42.879382
0
LINE
8
0
10
105.624260
20
42.879382
11
106.368979
21
43.416596
0
LINE
8
0
10
106.368979
20
43.416596
11
106.871135
21
44.213347
0
LINE
8
0
10
106.871135
20
44.213347
11
107.055285
21
45.188960
0
LINE
8
0
10
107.055285
20
45.188960
11
106.871173
21
46.164416
0
LINE
8
0
10
106.871173
20
46.164416
11
106.369080
21
46.961087
0
LINE
8
0
10
106.369080
20
46.961087
11
105.624374
21
47.498272
0
LINE
8
0
10
105.624374
20
47.498272
11
104.712418
21
47.695267
0
LINE
8
0
10
104.712418
20
47.695267
11
103.800505
21
47.498310
0
LINE
8
0
10
103.800505
20
47.498310
11
103.055891
21
46.961190
0
LINE
8
0
10
103.055891
20
46.961190
11
102.553892
21
46.164531
0
LINE
8
0
10
102.553892
20
46.164531
11
102.369822
21
45.188960
0
LINE
8
0
10
107.899577
20
47.432356
11
106.173256
21
47.573772
0
LINE
8
0
10
106.173256
20
47.573772
11
105.275740
21
47.532981
0
LINE
8
0
10
105.275740
20
47.532981
11
104.598582
21
47.160233
0
LINE
8
0
10
104.598582
20
47.160233
11
104.390025
21
46.546510
0
LINE
8
0
10
104.390025
20
46.546510
11
104.537868
21
45.875336
0
LINE
8
0
10
104.537868
20
45.875336
11
104.732060
21
45.149021
0
LINE
8
0
10
104.732060
20
45.149021
11
104.662547
21
44.369880
0
LINE
8
0
10
104.662547
20
44.369880
11
104.420869
21
44.025282
0
LINE
8
0
10
104.420869
20
44.025282
11
104.160412
21
43.841454
0
LINE
8
0
10
104.160412
20
43.841454
11
104.027971
21
43.640702
0
LINE
8
0
10
104.027971
20
43.640702
11
104.170338
21
43.245333
0
LINE
8
0
10
104.170338
20
43.245333
11
104.464492
21
42.979401
0
LINE
8
0
10
104.464492
20
42.979401
11
104.906685
21
42.792900
0
LINE
8
0
10
104.906685
20
42.792900
11
105.776791
21
42.662057
0
LINE
8
0
10
105.776791
20
42.662057
11
106.620602
21
42.869436
0
LINE
8
0
10
106.620602
20
42.869436
11
107.205002
21
43.341078
0
LINE
8
0
10
107.205002
20
43.341078
11
107.370189
21
43.993336
0
LINE
8
0
10
107.370189
20
43.993336
11
106.956357
21
44.742558
0
LINE
8
0
10
106.956357
20
44.742558
11
107.419560
21
44.905166
0
LINE
8
0
10
107.419560
20
44.905166
11
107.665634
21
45.215253
0
LINE
8
0
10
107.665634
20
45.215253
11
107.705126
21
45.619052
0
LINE
8
0
10
107.705126
20
45.619052
11
107.548579
21
46.062795
0
LINE
8
0
10
107.548579
20
46.062795
11
107.939528
21
46.257029
0
LINE
8
0
10
107.939528
20
46.257029
11
108.189858
21
46.569166
0
LINE
8
0
10
108.189858
20
46.569166
11
108.295251
21
46.965968
0
LINE
8
0
10
108.295251
20
46.965968
11
108.251385
21
47.414201
0
LINE
8
0
10
108.251385
20
47.414201
11
107.899577
21
47.432351
0
LINE
8
0
10
107.790077
20
47.444011
11
108.020460
21
47.444011
0
LINE
8
0
10
108.020460
20
47.444011
11
108.020460
21
47.672227
0
LINE
8
0
10
108.020460
20
47.672227
11
107.790077
21
47.672227
0
LINE
8
0
10
107.790077
20
47.672227
11
107.790077
21
47.444011
0
LINE
8
0
10
120.042164
20
47.529662
11
120.720238
21
47.550091
0
LINE
8
0
10
120.720238
20
47.550091
11
121.439375
21
47.774274
0
LINE
8
0
10
121.439375
20
47.774274
11
123.000835
21
48.833903
0
LINE
8
0
10
123.000835
20
48.833903
11
122.507643
21
47.529761
0
LINE
8
0
10
122.507643
20
47.529761
11
121.850135
21
46.877674
0
LINE
8
0
10
121.850135
20
46.877674
11
121.459761
21
46.796151
0
LINE
8
0
10
121.459761
20
46.796151
11
121.028308
21
46.877641
0
LINE
8
0
10
121.028308
20
46.877641
11
120.042164
21
47.529662
0
LINE
8
0
10
98.464436
20
37.444068
11
98.464436
21
34.046822
0
LINE
8
0
10
98.464436
20
34.046822
11
100.210155
21
34.046822
0
LINE
8
0
10
100.210155
20
34.046822
11
100.210155
21
35.290362
0
LINE
8
0
10
100.210155
20
35.290362
11
101.062377
21
35.290362
0
LINE
8
0
10
101.062377
20
35.290362
11
101.062377
21
34.515134
0
LINE
8
0
10
101.062324
20
34.516219
11
100.323994
21
33.799540
0
LINE
8
0
10
100.323994
20
33.799540
11
99.370086
21
33.245820
0
LINE
8
0
10
99.370086
20
33.245820
11
98.245016
21
32.888826
0
LINE
8
0
10
98.245016
20
32.888826
11
96.993202
21
32.762324
0
LINE
8
0
10
96.993202
20
32.762324
11
95.155111
21
33.042013
0
LINE
8
0
10
95.155111
20
33.042013
11
93.654059
21
33.804748
0
LINE
8
0
10
93.654059
20
33.804748
11
93.077406
21
34.331477
0
LINE
8
0
10
93.077406
20
34.331477
11
92.641995
21
34.936031
0
LINE
8
0
10
92.641995
20
34.936031
11
92.366820
21
35.604097
0
LINE
8
0
10
92.366820
20
35.604097
11
92.270874
21
36.321363
0
LINE
8
0
10
92.270874
20
36.321363
11
92.366820
21
37.038620
0
LINE
8
0
10
92.366820
20
37.038620
11
92.641995
21
37.706679
0
LINE
8
0
10
92.641995
20
37.706679
11
93.077406
21
38.311228
0
LINE
8
0
10
93.077406
20
38.311228
11
93.654059
21
38.837954
0
LINE
8
0
10
93.654059
20
38.837954
11
95.155111
21
39.600686
0
LINE
8
0
10
95.155111
20
39.600686
11
96.993202
21
39.880374
0
LINE
8
0
10
96.993202
20
39.880374
11
98.155963
21
39.754624
0
LINE
8
0
10
98.155963
20
39.754624
11
99.313236
21
39.415505
0
LINE
8
0
10
99.313236
20
39.415505
11
100.353724
21
38.920214
0
LINE
8
0
10
100.353724
20
38.920214
11
101.166133
21
38.325949
0
LINE
8
0
10
101.166093
20
38.325129
11
101.166093
21
38.232525
0
LINE
8
0
10
101.166093
20
38.232525
11
103.244128
21
38.232525
0
LINE
8
0
10
103.244128
20
38.232525
11
103.244128
21
42.001510
0
LINE
8
0
10
103.244128
20
42.001510
11
101.166093
21
42.001510
0
LINE
8
0
10
101.166093
20
42.001510
11
101.166093
21
40.402899
0
LINE
8
0
10
101.166133
20
40.402936
11
100.235471
21
41.084089
0
LINE
8
0
10
100.235471
20
41.084089
11
99.152475
21
41.597713
0
LINE
8
0
10
99.152475
20
41.597713
11
97.915038
21
41.921931
0
LINE
8
0
10
97.915038
20
41.921931
11
96.521051
21
42.034866
0
LINE
8
0
10
96.521051
20
42.034866
11
95.055361
21
41.916903
0
LINE
8
0
10
95.055361
20
41.916903
11
93.690196
21
41.578574
0
LINE
8
0
10
93.690196
20
41.578574
11
92.454806
21
41.043223
0
LINE
8
0
10
92.454806
20
41.043223
11
91.378442
21
40.334191
0
LINE
8
0
10
91.378442
20
40.334191
11
90.490353
21
39.474820
0
LINE
8
0
10
90.490353
20
39.474820
11
89.819789
21
38.488453
0
LINE
8
0
10
89.819789
20
38.488453
11
89.396001
21
37.398431
0
LINE
8
0
10
89.396001
20
37.398431
11
89.248238
21
36.228097
0
LINE
8
0
10
89.248238
20
36.228097
11
89.396001
21
35.057848
0
LINE
8
0
10
89.396001
20
35.057848
11
89.819789
21
33.967868
0
LINE
8
0
10
89.819789
20
33.967868
11
90.490353
21
32.981509
0
LINE
8
0
10
90.490353
20
32.981509
11
91.378442
21
32.122123
0
LINE
8
0
10
91.378442
20
32.122123
11
92.454806
21
31.413061
0
LINE
8
0
10
92.454806
20
31.413061
11
93.690196
21
30.877677
0
LINE
8
0
10
93.690196
20
30.877677
11
95.055361
21
30.539321
0
LINE
8
0
10
95.055361
20
30.539321
11
96.521051
21
30.421347
0
LINE
8
0
10
96.521051
20
30.421347
11
97.856930
21
30.523033
0
LINE
8
0
10
97.856930
20
30.523033
11
99.065099
21
30.815675
0
LINE
8
0
10
99.065099
20
30.815675
11
100.136562
21
31.280650
0
LINE
8
0
10
100.136562
20
31.280650
11
101.062324
21
31.899334
0
LINE
8
0
10
101.062377
20
31.898408
11
101.062377
21
31.064971
0
LINE
8
0
10
101.062377
20
31.064971
11
103.140412
21
31.064971
0
LINE
8
0
10
103.140412
20
31.064971
11
103.140412
21
35.290362
0
LINE
8
0
10
103.140412
20
35.290362
11
104.325214
21
35.290362
0
LINE
8
0
10
104.325214
20
35.290362
11
104.325214
21
30.318847
0
LINE
8
0
10
104.325214
20
30.318847
11
102.662839
21
30.318847
0
LINE
8
0
10
102.662839
20
30.318847
11
102.662839
21
28.165142
0
LINE
8
0
10
102.662839
20
28.165142
11
108.273851
21
28.165142
0
LINE
8
0
10
108.273851
20
28.165142
11
108.273851
21
30.318847
0
LINE
8
0
10
108.273851
20
30.318847
11
106.694291
21
30.318847
0
LINE
8
0
10
106.694291
20
30.318847
11
106.694291
21
35.290362
0
LINE
8
0
10
106.694291
20
35.290362
11
110.372788
21
35.290362
0
LINE
8
0
10
110.372788
20
35.290362
11
110.372788
21
34.046822
0
LINE
8
0
10
110.372788
20
34.046822
11
112.118507
21
34.046822
0
LINE
8
0
10
112.118507
20
34.046822
11
112.118507
21
35.290362
0
LINE
8
0
10
112.118507
20
35.290362
11
112.139144
21
35.290362
0
LINE
8
0
10
112.139144
20
35.290362
11
112.139144
21
37.444068
0
LINE
8
0
10
112.139144
20
37.444068
11
98.464436
21
37.444068
 0 
ENDSEC
 0 
EOF